<?xml version="1.0" standalone="no"?>
<!DOCTYPE svg PUBLIC "-//W3C//DTD SVG 20010904//EN"
 "http://www.w3.org/TR/2001/REC-SVG-20010904/DTD/svg10.dtd">
<svg version="1.0" xmlns="http://www.w3.org/2000/svg"
 width="200.000000pt" height="200.000000pt" viewBox="0 0 200.000000 200.000000"
 preserveAspectRatio="xMidYMid meet">
<metadata>
Created by potrace 1.14, written by Peter Selinger 2001-2017
</metadata>
<g transform="translate(0.000000,200.000000) scale(0.100000,-0.100000)"
fill="#000000" stroke="none">
<path d="M824 1791 c-40 -10 -101 -48 -113 -70 -5 -9 -23 -18 -41 -19 -24 -2
-38 5 -60 28 -15 16 -34 30 -42 31 -20 1 -126 1 -199 0 -77 -1 -112 -21 -112
-64 1 -22 -9 -32 -52 -56 -64 -36 -135 -114 -172 -189 l-28 -57 0 -445 0 -445
28 -57 c54 -110 141 -186 259 -227 52 -18 93 -19 701 -19 503 -1 656 2 695 12
117 31 223 120 279 234 l28 57 3 424 c3 471 3 473 -63 577 -41 64 -88 107
-152 141 -79 43 -135 52 -316 54 -152 1 -169 3 -178 20 -5 10 -31 31 -57 46
-46 27 -51 28 -212 30 -91 0 -179 -2 -196 -6z m860 -246 c69 -28 124 -78 157
-143 l24 -47 0 -405 0 -405 -27 -50 c-35 -66 -81 -108 -149 -139 l-56 -24
-639 1 -639 2 -52 24 c-58 26 -110 77 -145 143 -23 42 -23 48 -25 433 -2 339
-1 396 14 435 30 85 113 165 194 188 20 6 292 10 659 11 l625 0 59 -24z"/>
<path d="M360 1522 c-104 -29 -172 -114 -184 -230 -9 -83 -12 -81 134 -81
l128 0 35 58 c20 31 60 80 90 108 50 48 156 123 174 123 4 0 16 7 27 15 16 12
-8 14 -185 13 -112 -1 -211 -3 -219 -6z"/>
<path d="M1224 1521 c4 -6 13 -11 21 -11 7 0 47 -23 89 -50 83 -56 176 -153
203 -211 l18 -38 136 0 136 0 -2 62 c-5 107 -44 177 -126 221 -51 29 -54 29
-267 34 -158 3 -213 2 -208 -7z"/>
<path d="M895 1490 c-103 -21 -203 -73 -281 -147 -296 -278 -191 -767 196
-912 95 -35 254 -36 359 -2 227 75 378 271 386 501 11 353 -314 629 -660 560z
m222 -139 c174 -42 312 -231 304 -416 -9 -229 -203 -407 -436 -399 -226 7
-405 189 -406 412 -1 191 136 364 323 407 64 14 145 13 215 -4z"/>
<path d="M896 1284 c-250 -80 -332 -395 -150 -577 156 -155 429 -129 548 51
53 81 70 164 52 257 -20 103 -99 205 -193 250 -72 35 -182 43 -257 19z m229
-48 c67 -28 83 -95 27 -114 -88 -30 -204 60 -142 110 27 22 68 23 115 4z
m-219 -525 c11 -1 42 -15 69 -32 44 -28 47 -33 32 -44 -25 -18 -94 -8 -144 21
-57 33 -56 68 2 59 11 -2 29 -4 41 -4z"/>
<path d="M1651 543 c-60 -49 -4 -139 69 -111 31 11 40 25 40 61 0 56 -65 86
-109 50z"/>
</g>
</svg>
